<svg xmlns="http://www.w3.org/2000/svg" width="18.82" height="18.82" viewBox="0 0 18.82 18.82"><defs><style>.a{fill:#6eac7d;}</style></defs><path class="a" d="M7.94,0H10.88a.88.88,0,0,1,.882.882V7.058h3.224A.734.734,0,0,1,15.5,8.311L9.914,13.906a.712.712,0,0,1-1,0l-5.6-5.595A.734.734,0,0,1,3.83,7.058H7.058V.882A.88.88,0,0,1,7.94,0ZM18.82,13.821v4.117a.88.88,0,0,1-.882.882H.882A.88.88,0,0,1,0,17.938V13.821a.88.88,0,0,1,.882-.882H6.275l1.8,1.8a1.884,1.884,0,0,0,2.669,0l1.8-1.8h5.392A.88.88,0,0,1,18.82,13.821Zm-4.558,3.235a.735.735,0,1,0-.735.735A.737.737,0,0,0,14.262,17.056Zm2.353,0a.735.735,0,1,0-.735.735A.737.737,0,0,0,16.615,17.056Z"/></svg>