<svg xmlns="http://www.w3.org/2000/svg" viewBox="0 0 13.97 13.63"><defs><style>.cls-1{fill:#4a4a4a;fill-rule:evenodd;}</style></defs><title>アセット 4</title><g id="レイヤー_2" data-name="レイヤー 2"><g id="レイヤー_2-2" data-name="レイヤー 2"><path class="cls-1" d="M7,0A7,7,0,0,0,4.78,13.62c.35.06.47-.16.47-.34V12.09c-1.95.42-2.36-.94-2.36-.94a1.9,1.9,0,0,0-.77-1c-.64-.43,0-.42,0-.42a1.45,1.45,0,0,1,1.07.72,1.49,1.49,0,0,0,2,.58,1.51,1.51,0,0,1,.44-.94C4.16,9.9,2.53,9.3,2.53,6.62a2.67,2.67,0,0,1,.72-1.87A2.53,2.53,0,0,1,3.32,2.9s.58-.19,1.92.71A6.72,6.72,0,0,1,7,3.38a6.83,6.83,0,0,1,1.75.23c1.33-.9,1.92-.71,1.92-.71a2.53,2.53,0,0,1,.07,1.85,2.7,2.7,0,0,1,.71,1.87c0,2.69-1.63,3.28-3.19,3.45a1.65,1.65,0,0,1,.48,1.29c0,.94,0,1.69,0,1.92s.12.4.48.34A7,7,0,0,0,7,0Z"/></g></g></svg>