<svg xmlns="http://www.w3.org/2000/svg" viewBox="0 0 13.99 13.99"><defs><style>.cls-1{fill:#4a4a4a;}</style></defs><title>アセット 3</title><g id="レイヤー_2" data-name="レイヤー 2"><g id="レイヤー_2-2" data-name="レイヤー 2"><path class="cls-1" d="M7,0a7,7,0,1,0,7,7A7,7,0,0,0,7,0Zm4.5,3.23-.73.7a.23.23,0,0,0-.08.2V9.28a.24.24,0,0,0,.08.21l.72.7v.15H7.9v-.15l.74-.72c.07-.07.07-.09.07-.2V5.1L6.65,10.33H6.37L4,5.1V8.6A.51.51,0,0,0,4.11,9l1,1.16v.16H2.35v-.16L3.31,9a.47.47,0,0,0,.12-.41v-4a.34.34,0,0,0-.11-.3l-.86-1V3.08H5.12L7.17,7.57,9,3.08H11.5Z"/></g></g></svg>