<svg version="1.1" id="レイヤー_1" xmlns="http://www.w3.org/2000/svg" x="0" y="0" viewBox="0 0 250 250" xml:space="preserve"><style>.st0{fill:#6eac7d}</style><path class="st0" d="M200.81 151.7c.17-1.01.01-2.07-.55-3.02-.8-1.36-19.74-33.38-23.1-38.56-2.1-3.24-5.01-6.81-9.8-8.69l-6.31 7.72c3.69.25 5.96 1.84 8.56 5.86 2.04 3.14 10.41 17.19 16.45 27.35-.04 0-.08-.01-.12-.01H64.06c-.07 0-.13.01-.2.01 5.93-10.16 14.17-24.22 16.2-27.36 3-4.63 4.96-5.9 9.14-5.9h2.39l-7-8.53c-5.57 1.22-8.97 4.73-12.09 9.53-3.19 4.92-20.18 34.13-22.81 40.59-1.39 2.42-2.19 5.21-2.19 8.2v11.7c0 9.12 7.42 16.55 16.55 16.55h121.88c9.12 0 16.55-7.42 16.55-16.55v-11.7c.01-2.57-.61-5.01-1.67-7.19zm-7.32 18.91c0 4.16-3.38 7.55-7.55 7.55H64.06c-4.16 0-7.55-3.38-7.55-7.55v-11.7c0-4.16 3.38-7.55 7.55-7.55h121.88c4.16 0 7.55 3.38 7.55 7.55v11.7z"/><path class="st0" d="M122.92 123.62c.86 1.04 2.13 1.64 3.47 1.64s2.62-.6 3.47-1.64l22.56-27.4c1.11-1.34 1.34-3.21.59-4.78s-2.33-2.58-4.07-2.58h-8.83V67.34c0-2.49-2.01-4.5-4.5-4.5h-18.46c-2.49 0-4.5 2.01-4.5 4.5v21.52h-8.83c-1.74 0-3.33 1-4.07 2.58s-.51 3.44.59 4.78l22.58 27.4z"/><circle class="st0" cx="74.45" cy="165.83" r="6.62"/><path class="st0" d="M92.82 159.2c-3.66 0-6.62 2.96-6.62 6.62s2.96 6.62 6.62 6.62 6.62-2.96 6.62-6.62c0-3.65-2.96-6.62-6.62-6.62zM177.02 161.35h-27.93c-2.47 0-4.48 2-4.48 4.48s2 4.48 4.48 4.48h27.93c2.47 0 4.48-2 4.48-4.48s-2.01-4.48-4.48-4.48z"/></svg>