<svg xmlns="http://www.w3.org/2000/svg" viewBox="0 0 250 250"><path d="M186.51 80.81c-.01 0-.01 0 0 0-3.21-.76-6.5-1.14-9.78-1.14-20.37 0-36.3 12.95-46.08 23.82-.02.02-.03.04-.04.06a97.778 97.778 0 00-5.93 7.24 98.56 98.56 0 00-5.65-6.85l.01-.01c-7.94-8.82-19.93-19-35.03-22.53v-7.23a4.49 4.49 0 00-5.46-4.39c-.68.15-1.34.45-1.9.91l-1.9 1.56-.56.46-10.16 8.37-.08.06-.65.54-1.32 1.09c-1 .82-1.58 2.04-1.62 3.33 0 .05-.02.09-.02.14 0 .05.01.09.02.14.04 1.29.62 2.51 1.63 3.33l1.08.89 11.14 9.17.55.45 1.9 1.56c.56.46 1.22.76 1.9.91.32.07.63.12.96.12.65 0 1.31-.14 1.92-.43A4.506 4.506 0 0084 98.31V90.7c11.95 3.44 21.68 11.86 28.31 19.21.01.02.02.04.04.05 3.36 3.73 5.83 7.08 7.31 9.25-1.51 2.2-3.99 5.58-7.31 9.26-.01.02-.02.03-.04.05-8.55 9.5-22.31 20.8-39.35 20.8-2.56 0-5.13-.3-7.64-.89a.185.185 0 00-.07-.02c-14.19-3.34-24.09-15.36-24.09-29.21 0-11.92 7.34-22.47 18.42-27.31l-2.5-2.42a4.477 4.477 0 01-1.37-3.23c0-1.1.42-2.15 1.14-2.97-14.81 6.07-24.68 20.06-24.68 35.93 0 18.01 12.71 33.6 30.92 37.94.04.01.07.03.11.04 3.21.76 6.5 1.14 9.77 1.14 20.37 0 36.3-12.95 46.08-23.82.02-.02.03-.04.04-.06 2.38-2.64 4.36-5.12 5.93-7.24a98.56 98.56 0 005.65 6.85c6.64 7.37 16.12 15.7 27.88 20.3a4.51 4.51 0 01-.84-2.61c0-1.22.5-2.39 1.37-3.23l2.66-2.57c-10.14-3.98-18.47-11.35-24.34-17.87-.01-.02-.02-.03-.04-.05-3.36-3.73-5.83-7.08-7.31-9.25 1.51-2.2 3.99-5.58 7.31-9.26.01-.02.02-.03.04-.05 8.55-9.5 22.31-20.8 39.35-20.8 2.58 0 5.17.3 7.71.9 14.18 3.34 24.09 15.35 24.09 29.21 0 13.34-9.19 24.97-22.54 28.8v-7.89c0-1.74-1-3.33-2.58-4.07-.92-.43-1.93-.52-2.88-.32-.68.15-1.34.45-1.9.91l-1.9 1.56-.55.45-10.88 8.95-1.34 1.1c-1 .82-1.58 2.04-1.63 3.33 0 .05-.02.09-.02.14 0 .05.01.09.02.14.04 1.29.62 2.51 1.62 3.33l1.64 1.35 10.57 8.7.56.46 1.9 1.56c.56.46 1.22.76 1.9.91.32.07.63.12.96.12.65 0 1.31-.14 1.92-.43a4.507 4.507 0 002.58-4.07v-6.98c.17-.04.34-.07.51-.11 18.27-4.31 31.03-19.92 31.03-37.97-.01-18.01-12.77-33.62-31.03-37.93z" fill="#6eac7d"/></svg>