<svg xmlns="http://www.w3.org/2000/svg" viewBox="0 0 250 250"><path d="M91.11 71.84c1.03 0 1.89-.78 1.99-1.81 1.22-12.52 1.98-13.14 8.52-14.9.87-.24 1.48-1.03 1.48-1.93s-.61-1.69-1.48-1.93c-6.54-1.77-7.3-2.38-8.52-14.9-.1-1.02-.96-1.81-1.99-1.81s-1.89.78-1.99 1.81c-1.22 12.52-1.98 13.14-8.52 14.9-.87.24-1.48 1.03-1.48 1.93s.61 1.69 1.48 1.93c6.54 1.77 7.3 2.38 8.52 14.9.1 1.02.96 1.81 1.99 1.81zm113.83 65.4c-7.24-1.95-8.22-2.73-9.6-16.65-.1-1.02-.96-1.8-1.99-1.8s-1.89.78-1.99 1.81c-1.33 13.92-2.31 14.71-9.54 16.68-.87.24-1.48 1.03-1.47 1.93 0 .9.61 1.69 1.48 1.93 7.24 1.95 8.22 2.73 9.6 16.65.1 1.02.96 1.8 1.99 1.8s1.89-.78 1.99-1.81c1.33-13.92 2.31-14.71 9.54-16.68.87-.24 1.48-1.03 1.47-1.93 0-.91-.61-1.7-1.48-1.93zM68.97 177.96c-3.86-1.04-4.26-1.14-5.05-9.09-.1-1.02-.96-1.8-1.99-1.8s-1.89.78-1.99 1.81c-.76 7.95-1.16 8.06-5.02 9.11-.87.24-1.48 1.03-1.48 1.93s.61 1.69 1.48 1.93c3.86 1.04 4.26 1.14 5.05 9.09.1 1.02.96 1.8 1.99 1.8s1.89-.78 1.99-1.81c.76-7.95 1.16-8.06 5.02-9.11.87-.24 1.48-1.03 1.48-1.93s-.61-1.7-1.48-1.93zm110.3 15.46c-6.49-1.74-7.25-2.35-8.47-14.79-.1-1.02-.96-1.8-1.99-1.8s-1.89.78-1.99 1.81c-1.19 12.44-1.94 13.05-8.43 14.81-.87.24-1.48 1.03-1.48 1.93s.61 1.69 1.48 1.93c6.49 1.74 7.25 2.35 8.48 14.78.1 1.02.96 1.8 1.99 1.8s1.89-.78 1.99-1.81c1.19-12.44 1.94-13.05 8.43-14.81.87-.24 1.48-1.03 1.47-1.93s-.6-1.68-1.48-1.92zm5.41-115.12c5.06 1.36 5.71 1.53 6.73 11.89.1 1.02.96 1.8 1.99 1.8s1.89-.78 1.99-1.81c.99-10.36 1.64-10.54 6.7-11.91.87-.24 1.48-1.03 1.47-1.93 0-.9-.61-1.69-1.48-1.93-5.06-1.36-5.71-1.53-6.73-11.89-.1-1.02-.96-1.8-1.99-1.8s-1.89.78-1.99 1.81c-.99 10.36-1.64 10.54-6.7 11.91-.87.24-1.48 1.03-1.47 1.93 0 .9.61 1.69 1.48 1.93zM53.79 122.79c1.03 0 1.89-.78 1.99-1.81.99-10.36 1.64-10.54 6.7-11.91.87-.24 1.48-1.03 1.48-1.93s-.61-1.69-1.48-1.93c-5.06-1.36-5.71-1.53-6.73-11.89-.1-1.02-.97-1.83-1.99-1.8-1.03 0-1.89.78-1.99 1.81-.99 10.36-1.64 10.54-6.7 11.91-.87.24-1.48 1.03-1.48 1.93s.61 1.69 1.48 1.93c5.06 1.36 5.71 1.53 6.73 11.89.09 1.02.95 1.8 1.99 1.8-.01 0 0 0 0 0zm103.66 24.23l3.79-10.94c1.04-3.09 4.84-25.48 5.41-28.93.27-1.11.19-2.15.13-2.94-.01-.19-.03-.37-.03-.54 0-.22 0-.64.03-.91.11-.19.21-.39.29-.59l4.84-12.21c.05-.12.09-.24.13-.37.07-.13.21-.36.3-.53.28-.47.59-.99.83-1.61l2.26-5.13c.1-.23.19-.48.25-.72.3-1.21.34-2.66.34-4.04 0-.25-.02-.49-.06-.74l-.16-.95c-.05-1.08-.3-2.98-1.38-4.7l-.29-.66v-1.55l.55-2.77c.27-.42.48-.82.66-1.16l.09-.18 4.39-4.6c.46-.48.79-1.02 1-1.65l.06-.15c.35-.85 1.15-2.85.07-4.99-.25-.49-.58-.93-.96-1.3l-1.83-3.17c-.2-.34-.44-.65-.72-.93-.79-.79-2.17-2.17-4.32-2.5l-6.87-2.36c-.24-.08-.49-.15-.74-.19l-2.11-2.81c-1.08-1.54-3.13-3.14-5.76-3.14h-.63c-1.54 0-2.83.57-3.68.95-.11.05-.21.1-.3.13-.65.22-1.24.59-1.72 1.07L149 41.52c-.15.15-.29.31-.42.48-.73.97-1.19 2.11-1.46 3.19l-2 .33c-1.43.24-2.8.68-4.19 1.35l-5.87 2.15c-1.95.55-3.93 2.19-4.7 4.01l-5.9 13.22c-.2.27-.44.55-.58.68-.29.21-.55.45-.79.72l-5.38 6.21c-.82.84-1.87 2.14-2.55 3.44L91 119.78c-1.42 1.85-1.42 4.03-1.42 4.9v.2l.62 13.95c-.58.6-.98 1.35-1.15 2.17-.02.03-.03.06-.05.09-.3.61-.74 1.48-.86 2.57l-.59 3.14c-.03.16-.05.32-.06.48-.03.1-.07.2-.1.29-.21.64-.5 1.49-.54 2.53l-.2 2.17c-.01.14-.02.27-.02.41 0 2.79 1.2 5.07 3.14 6.16l2.54 2.09v3.74c0 .76.15 1.52.3 2.25.05.24.1.47.13.67.01.34.07.68.16 1l1.26 4.63c.08.29.18.56.32.83.06.12.17.43.25.66.24.68.53 1.52 1.08 2.35.02.04.05.07.07.11l4.49 6.33c1.23 2.09 3.65 3.57 5.92 3.57l6.25 5.58c.06.06.13.11.2.17.22.18.35.31.42.38.06.18.13.36.21.53l2.7 5.78c.02.28.03.65.03.97l-.56 3.18c-.05.26-.07.52-.07.78 0 1.45.37 2.6.62 3.36.05.16.1.31.14.46.29 1.16 1.03 2.15 2.05 2.77l.5.3c.79.77 1.64 1.25 2.2 1.57.05.03.11.06.15.09.25.21.53.38.82.53l2.38 1.19c.84.48 1.77.71 2.71.71 1.94 0 3.89-.99 5.09-2.79.26-.39.46-.81.58-1.26l.84-2.95c.01-.05.03-.1.04-.14.04-.15.09-.31.14-.46.25-.76.62-1.91.62-3.36v-13.47c0-.82.03-1.28.06-1.49l4.89-12.43c.03-.08.06-.15.08-.23.06-.1.13-.19.19-.29.17-.25.37-.56.57-.91l4.7-5.25c1.02-.78 2.09-1.98 2.69-3.22l6.91-11.58c1.26-1.75 1.55-3.09 1.78-4.53.07-.46.13-.85.28-1.4.08-.29.13-.59.15-.9.06-.22.22-.6.3-.74.2-.29.37-.64.5-1zm-34.32-65.54c.14-.28.64-.94 1.05-1.36.08-.08.15-.15.22-.23l.4-.46 32.01 32.01c-.48 2.78-1.01 5.77-1.52 8.62l-34.48-34.48 2.21-3.88c.04-.08.07-.15.11-.22zm8.98-10.46c.01-.02.02-.04.03-.05l26.93 26.94-.22.56c-1.1 1.91-1.1 4.1-1.1 5.21 0 .39.03.81.06 1.23.01.13.02.27.03.4l-.03.18c-.06.36-.12.73-.18 1.12l-30.2-30.2 2.15-2.48c1.23-1.04 2.22-2.45 2.53-2.91zm31.44 15.57c-.03.09-.07.17-.1.26l-2.78 7-26.74-26.75 3.13-7.01 26.49 26.5zm-11.8-33.26c1.9-.99 4.06-3.08 4.06-5.79 0-.03.01-.06.01-.1l.08-.08 12.22 12.22c-.32.45-.56.89-.76 1.28-.08.15-.15.31-.24.45-.54.6-.92 1.34-1.08 2.14l-.7 3.5-13.59-13.62zm19.05.97l.85 1.48-.82.85-3.52-3.52 3.37 1.15c.04.01.08.03.12.04zm-26.58.98c.16-.06.31-.12.46-.2.66-.33 1.26-.53 1.88-.64l.54-.09 18.12 18.12c.06.28.15.56.27.82l.84 1.89c.11.25.25.49.4.72.03.1.06.28.06.4 0 .25.02.49.06.74l.15.89c-.01.66-.03 1.05-.05 1.27l-1.57 3.56-25.78-25.78 4.62-1.7zm-25.46 33.9l35.65 35.65c-.78 4.19-1.43 7.46-1.67 8.29 0 .01 0 .01-.01.02l-.04.11-37.61-37.61 3.68-6.46zm29.75 55.68l-39.15-39.15 3.67-6.46 38.2 38.2-2.14 6.2c-.18.33-.38.76-.58 1.21zm-8.86 17.96l-.18.33c-.03.03-.06.07-.09.1-.33.22-.63.47-.9.77l-1.14 1.27-38.7-38.7-.08-1.89c.01-.02.03-.05.04-.07l2.98-5.24 40.07 40.07-2 3.36zm-38.35-2v-.96c0-3.04-1.48-4.89-3.19-5.77l-2.42-2 .12-1.29v-.06c.03-.1.07-.2.1-.29.19-.58.45-1.34.52-2.25l.38-2 32.27 32.26-2.86 7.28-24.92-24.92zm10.99 19.54c-1.27-1.22-2.91-1.98-4.71-2.2l-4.23-5.96c-.05-.14-.1-.29-.15-.44-.13-.36-.28-.79-.48-1.25l-.98-3.6 23.6 23.6c0 .16-.01.31-.01.48v9.65l-.26-.26c-.01-.97-.05-2.15-.34-3.32-.07-.28-.17-.55-.29-.81l-2.81-6.01c-.52-1.58-1.59-3.04-3.19-4.35l-6.15-5.53zm20.72-10.25c-.33.36-.59.78-.78 1.23-.04.06-.09.13-.13.2-.38.56-.93 1.38-1.26 2.44l-.17.42-31.93-31.93c.76-1.68.74-3.14.42-4.3l-.25-5.66 35.76 35.76-1.66 1.84zm14.23-19.93s-.04.08-.17.25c-.1.13-.18.26-.26.4l-3.04 5.09-40.14-40.14 3.67-6.46 40.05 40.05c-.02.11-.04.23-.05.33-.02.19-.03.37-.06.48z" fill="#6eac7d"/></svg>