<svg version="1.1" id="レイヤー_1" xmlns="http://www.w3.org/2000/svg" x="0" y="0" viewBox="0 0 250 250" xml:space="preserve"><style>.st0{fill:#6eac7d}</style><path class="st0" d="M45.9 108.17c-2.49 0-4.5 2.01-4.5 4.5s2.01 4.5 4.5 4.5h57.23c2.49 0 4.5-2.01 4.5-4.5s-2.01-4.5-4.5-4.5H86.3v-8.07h20.75c9.5 0 17.23-7.73 17.23-17.23v-33.5c0-9.5-7.73-17.23-17.23-17.23H41.98c-9.5 0-17.23 7.73-17.23 17.23v33.5c0 9.5 7.73 17.23 17.23 17.23h20.75v8.07H45.9zm-12.15-25.3v-33.5c0-4.54 3.69-8.23 8.23-8.23h65.07c4.54 0 8.23 3.69 8.23 8.23v33.5c0 4.54-3.69 8.23-8.23 8.23H41.98c-4.54 0-8.23-3.7-8.23-8.23z"/><path class="st0" d="M55.16 62.36c-2.6-.67-2.74-.95-2.74-1.65 0-.6.6-1.62 2.21-1.62 1.2 0 1.86.53 2.07.98.46 1.02 1.69 1.48 2.71.98s1.48-1.69.98-2.71c-.95-2.07-3.16-3.34-5.77-3.34-1.83 0-3.45.63-4.61 1.76-1.09 1.05-1.72 2.5-1.72 3.94 0 1.83.81 3.3 2.29 4.29 1.09.7 2.36 1.02 3.59 1.3 2.74.7 3.02 1.02 3.02 2.07 0 .77-.67 1.93-2.57 1.93-1.37 0-2.14-.63-2.43-1.2-.46-1.02-1.65-1.48-2.71-.98-1.02.46-1.48 1.69-.98 2.71.98 2.18 3.34 3.55 6.12 3.55 2.46 0 4.01-1.02 4.89-1.86 1.12-1.12 1.76-2.64 1.76-4.15 0-4.49-3.83-5.44-6.11-6zM78.75 55.15c-1.05-.42-2.25.11-2.67 1.12l-4.22 10.58-4.22-10.58c-.42-1.02-1.62-1.55-2.67-1.12s-1.55 1.62-1.12 2.67l6.12 15.29c.32.77 1.05 1.27 1.9 1.27s1.58-.49 1.9-1.27l6.12-15.29c.4-1.05-.09-2.25-1.14-2.67zM98.82 55.19c-.98 0-1.79.67-2 1.58-1.48-1.02-3.27-1.58-5.17-1.58-2.6 0-4.96 1.02-6.68 2.92-1.65 1.76-2.53 4.18-2.53 6.79 0 2.57.88 4.99 2.53 6.75 1.72 1.9 4.08 2.92 6.68 2.92 1.86 0 3.62-.53 5.13-1.55v.84c0 2.99-2.46 5.41-5.45 5.41-1.97 0-3.8-1.05-4.75-2.78-.56-.98-1.79-1.34-2.78-.81-.98.56-1.34 1.79-.81 2.78 1.69 3.02 4.89 4.92 8.33 4.92 5.24 0 9.53-4.29 9.53-9.53V57.23c.01-1.13-.9-2.04-2.03-2.04zm-7.17 15.29c-2.99 0-5.13-2.36-5.13-5.59 0-3.27 2.14-5.62 5.13-5.62 2.95 0 5.13 2.36 5.13 5.62 0 3.23-2.18 5.59-5.13 5.59zM234.94 83.29l-25.77-25.92c-.84-.85-1.99-1.33-3.19-1.33h-32.47c-9.5 0-17.23 7.73-17.23 17.23v65.07c0 9.5 7.73 17.23 17.23 17.23h45.5c9.5 0 17.23-7.73 17.23-17.23V86.46c.01-1.19-.46-2.33-1.3-3.17zm-10.14 2.57h-18.22V67.53l18.22 18.33zm-5.78 60.72h-45.5c-4.54 0-8.23-3.69-8.23-8.23V73.27c0-4.54 3.69-8.23 8.23-8.23h29.07v20.91c0 2.15 1.75 3.91 3.91 3.91h20.76v48.49c-.01 4.53-3.7 8.23-8.24 8.23z"/><path class="st0" d="M181.82 104.58c-5.34 0-9.67 4.36-9.67 9.7 0 5.31 4.32 9.67 9.67 9.67s9.7-4.36 9.7-9.67c.01-5.34-4.35-9.7-9.7-9.7zm0 15.3c-3.09 0-5.59-2.53-5.59-5.59 0-3.09 2.5-5.62 5.59-5.62s5.59 2.53 5.59 5.62c0 3.05-2.49 5.59-5.59 5.59zM204.75 119.17c-.84-.74-2.14-.63-2.88.21-.11.14-.39.39-.81.39-.6 0-1.05-.49-1.05-1.09v-10.12h2.6c1.12 0 2.04-.91 2.04-2.04s-.91-2.04-2.04-2.04H200v-2.25c0-1.12-.91-2.04-2.04-2.04-1.16 0-2.07.91-2.07 2.04v2.25c-1.05.04-1.93.95-1.93 2.04s.88 2 1.93 2.04v10.12c0 2.85 2.32 5.17 5.17 5.17 1.51 0 2.95-.67 3.94-1.79.73-.88.63-2.18-.25-2.89zM215.72 103.28c.21 0 .42.04.6.11 1.05.42 2.25-.11 2.64-1.16.42-1.05-.11-2.25-1.16-2.64-.67-.25-1.37-.39-2.07-.39-3.2 0-5.77 2.6-5.77 5.8v.46c-1.12 0-2.04.91-2.04 2.04s.91 2 2.04 2.04v12.27c0 1.12.91 2.04 2.04 2.04s2.04-.91 2.04-2.04v-12.27h3.02c1.12 0 2.04-.91 2.04-2.04s-.91-2.04-2.04-2.04h-3.02V105c-.01-.94.73-1.72 1.68-1.72zM124.52 130.76H59.45c-9.5 0-17.23 7.73-17.23 17.23v52.65c0 9.5 7.73 17.23 17.23 17.23h65.07c9.5 0 17.23-7.73 17.23-17.23v-52.65c0-9.5-7.73-17.23-17.23-17.23zm-65.07 9h65.07c4.54 0 8.23 3.69 8.23 8.23v9.55H51.22v-9.55c0-4.54 3.69-8.23 8.23-8.23zm65.07 69.11H59.45c-4.54 0-8.23-3.69-8.23-8.23v-39.1h81.53v39.1c0 4.54-3.69 8.23-8.23 8.23z"/><path class="st0" d="M88.7 177.68c-1.05-.35-2.21.25-2.57 1.3l-3.23 9.98-2.89-6.96c-.32-.77-1.05-1.3-1.9-1.3-.81 0-1.58.53-1.9 1.3l-2.85 6.96-3.27-9.98c-.35-1.05-1.48-1.65-2.57-1.3s-1.65 1.51-1.3 2.57l4.96 15.29c.28.81 1.02 1.37 1.86 1.41h.11c.81 0 1.55-.49 1.86-1.27l3.09-7.52 3.09 7.52c.32.77 1.12 1.3 1.97 1.27s1.62-.6 1.86-1.41l4.99-15.29c.37-1.06-.22-2.22-1.31-2.57zM103.36 192.27c-.84-.74-2.14-.63-2.88.21-.11.14-.39.39-.81.39-.6 0-1.05-.49-1.05-1.09v-10.12h2.6c1.12 0 2.04-.91 2.04-2.04s-.91-2.04-2.04-2.04h-2.6v-2.25c0-1.12-.91-2.04-2.04-2.04-1.16 0-2.07.91-2.07 2.04v2.25c-1.05.04-1.93.95-1.93 2.04s.88 2 1.93 2.04v10.12c0 2.85 2.32 5.17 5.17 5.17 1.51 0 2.95-.67 3.94-1.79.72-.89.62-2.19-.26-2.89zM114.33 176.38c.21 0 .42.04.6.11 1.05.42 2.25-.11 2.64-1.16.42-1.05-.11-2.25-1.16-2.64-.67-.25-1.37-.39-2.07-.39-3.2 0-5.77 2.6-5.77 5.8v.46c-1.12 0-2.04.91-2.04 2.04s.91 2 2.04 2.04v12.27c0 1.12.91 2.04 2.04 2.04s2.04-.91 2.04-2.04v-12.27h3.02c1.12 0 2.04-.91 2.04-2.04s-.91-2.04-2.04-2.04h-3.02v-.46c-.01-.95.73-1.72 1.68-1.72z"/><circle class="st0" cx="60.15" cy="148.18" r="3.37"/><circle class="st0" cx="69.63" cy="148.18" r="3.37"/><circle class="st0" cx="79.1" cy="148.18" r="3.37"/></svg>