<svg xmlns="http://www.w3.org/2000/svg" viewBox="0 0 1000 1000"><path d="M597 101.6c3-1 8-4 12-4h3c4 0 8 3 10 6l12 16c1 3 8 6 12 6l35 12c4 0 7 3 10 6l11 19c4 1 1 6 0 9l-22 23c-2 2-4 8-7 11l-4 20v14l4 9c3 4 4 10 4 14l1 6c0 3 0 10-1 14l-11 25c-1 3-5 8-6 12l-23 58c-3 4-3 11-3 15s1 9 0 12c-6 37-22 127-25 135l-18 52c-2 3-5 10-5 14-3 11-1 14-7 22l-34 57c-1 3-6 8-8 9l-26 29c-1 3-5 7-6 11l-24 61c-1 4-1 11-1 13v64c0 5-2 9-3 13l-4 14c-2 3-6 5-9 3l-12-6c-2-2-8-4-11-8l-5-3c-1-4-3-8-3-13l3-17c0-4 0-9-1-13l-14-30c-1-4-4-8-9-12l-30-27c-4-4-9-5-13-5h-1c-3 0-8-3-10-7l-22-31c-2-3-3-8-5-12l-6-22c0-3-2-10-2-13v-23c0-4-1-8-5-9l-17-14c-4-1-5-8-5-11l1-11c0-4 3-9 3-13l3-16c0-3 4-8 4-11l3-2c3-4 5-8 3-12l-3-68c0-3 0-8 3-11l116-204c2-4 6-9 9-12l26-30c3-2 7-7 9-10l29-65c1-3 7-7 9-7l30-11c4-2 9-4 15-5l18-3c4-2 8-6 8-9s1-9 4-13l11-11z" fill="#fff"/></svg>